<svg width="2684" height="511" viewBox="0 0 2684 511" fill="none" xmlns="http://www.w3.org/2000/svg">
<g filter="url(#filter0_d_323_23)">
<path d="M306.567 498.129C314.645 504.309 327.129 503.691 334.473 496.893C341.817 490.096 341.082 479.59 333.004 473.41L48.8009 257.121C41.4572 251.56 41.4572 243.526 48.8009 237.964L333.004 29.0909C341.082 22.9112 341.817 12.4057 335.207 5.60806C327.863 -1.18959 315.379 -1.80756 307.301 3.75416L23.0978 213.246C-1.87096 231.785 -2.60532 262.683 22.3634 281.84L306.567 498.129Z" fill="black"/>
<path d="M2646.57 498.129C2654.64 504.309 2667.13 503.691 2674.47 496.893C2681.82 490.096 2681.08 479.59 2673 473.41L2388.8 257.121C2381.46 251.56 2381.46 243.526 2388.8 237.964L2673 29.0909C2681.08 22.9112 2681.82 12.4057 2675.21 5.60806C2667.86 -1.18959 2655.38 -1.80756 2647.3 3.75416L2363.1 213.246C2338.13 231.785 2337.39 262.683 2362.36 281.84L2646.57 498.129Z" fill="black"/>
<path d="M2178.57 498.129C2186.64 504.309 2199.13 503.691 2206.47 496.893C2213.82 490.096 2213.08 479.59 2205 473.41L1920.8 257.121C1913.46 251.56 1913.46 243.526 1920.8 237.964L2205 29.0909C2213.08 22.9112 2213.82 12.4057 2207.21 5.60806C2199.86 -1.18959 2187.38 -1.80756 2179.3 3.75416L1895.1 213.246C1870.13 231.785 1869.39 262.683 1894.36 281.84L2178.57 498.129Z" fill="black"/>
<path d="M1710.57 498.129C1718.64 504.309 1731.13 503.691 1738.47 496.893C1745.82 490.096 1745.08 479.59 1737 473.41L1452.8 257.121C1445.46 251.56 1445.46 243.526 1452.8 237.964L1737 29.0909C1745.08 22.9112 1745.82 12.4057 1739.21 5.60806C1731.86 -1.18959 1719.38 -1.80756 1711.3 3.75416L1427.1 213.246C1402.13 231.785 1401.39 262.683 1426.36 281.84L1710.57 498.129Z" fill="black"/>
<path d="M1242.57 498.129C1250.64 504.309 1263.13 503.691 1270.47 496.893C1277.82 490.096 1277.08 479.59 1269 473.41L984.801 257.121C977.457 251.56 977.457 243.526 984.801 237.964L1269 29.0909C1277.08 22.9112 1277.82 12.4057 1271.21 5.60806C1263.86 -1.18959 1251.38 -1.80756 1243.3 3.75416L959.098 213.246C934.129 231.785 933.395 262.683 958.363 281.84L1242.57 498.129Z" fill="black"/>
<path d="M774.567 498.129C782.645 504.309 795.129 503.691 802.473 496.893C809.817 490.096 809.082 479.59 801.004 473.41L516.801 257.121C509.457 251.56 509.457 243.526 516.801 237.964L801.004 29.0909C809.082 22.9112 809.817 12.4057 803.207 5.60806C795.863 -1.18959 783.379 -1.80756 775.301 3.75416L491.098 213.246C466.129 231.785 465.395 262.683 490.363 281.84L774.567 498.129Z" fill="black"/>
</g>
<defs>
<filter id="filter0_d_323_23" x="0" y="0" width="2683.67" height="510.402" filterUnits="userSpaceOnUse" color-interpolation-filters="sRGB">
<feFlood flood-opacity="0" result="BackgroundImageFix"/>
<feColorMatrix in="SourceAlpha" type="matrix" values="0 0 0 0 0 0 0 0 0 0 0 0 0 0 0 0 0 0 127 0" result="hardAlpha"/>
<feOffset dy="4"/>
<feGaussianBlur stdDeviation="2"/>
<feComposite in2="hardAlpha" operator="out"/>
<feColorMatrix type="matrix" values="0 0 0 0 0 0 0 0 0 0 0 0 0 0 0 0 0 0 0.25 0"/>
<feBlend mode="normal" in2="BackgroundImageFix" result="effect1_dropShadow_323_23"/>
<feBlend mode="normal" in="SourceGraphic" in2="effect1_dropShadow_323_23" result="shape"/>
</filter>
</defs>
</svg>
